<mxfile host="app.diagrams.net" modified="2022-03-21T16:22:37.275Z" agent="5.0 (Windows)" etag="Vci5FawnDgrrx778RsFw" version="17.1.3" type="github">
  <diagram id="GHRWe6RMTBwZ-JodQn9S" name="Page-1">
    <mxGraphModel dx="875" dy="779" grid="1" gridSize="10" guides="1" tooltips="1" connect="1" arrows="1" fold="1" page="1" pageScale="1" pageWidth="850" pageHeight="1100" math="0" shadow="0">
      <root>
        <mxCell id="0" />
        <mxCell id="1" parent="0" />
        <mxCell id="9bseCz9SSuh36VcmQYdb-35" value="Shopping Cart Functionality" style="swimlane;startSize=20;horizontal=1;containerType=tree;strokeColor=#000000;" parent="1" vertex="1">
          <mxGeometry x="20" y="40" width="810" height="640" as="geometry">
            <mxRectangle x="10" y="30" width="130" height="20" as="alternateBounds" />
          </mxGeometry>
        </mxCell>
        <mxCell id="9bseCz9SSuh36VcmQYdb-12" value="App.js" style="shape=table;startSize=20;container=1;collapsible=0;childLayout=tableLayout;fixedRows=1;rowLines=0;fontStyle=1;" parent="9bseCz9SSuh36VcmQYdb-35" vertex="1">
          <mxGeometry x="50" y="40" width="510" height="190" as="geometry" />
        </mxCell>
        <mxCell id="9bseCz9SSuh36VcmQYdb-13" value="" style="shape=tableRow;horizontal=0;startSize=0;swimlaneHead=0;swimlaneBody=0;top=0;left=0;bottom=0;right=0;collapsible=0;dropTarget=0;fillColor=none;points=[[0,0.5],[1,0.5]];portConstraint=eastwest;" parent="9bseCz9SSuh36VcmQYdb-12" vertex="1">
          <mxGeometry y="20" width="510" height="40" as="geometry" />
        </mxCell>
        <mxCell id="9bseCz9SSuh36VcmQYdb-14" value="1" style="shape=partialRectangle;html=1;whiteSpace=wrap;connectable=0;fillColor=none;top=0;left=0;bottom=0;right=0;overflow=hidden;pointerEvents=1;" parent="9bseCz9SSuh36VcmQYdb-13" vertex="1">
          <mxGeometry width="113" height="40" as="geometry">
            <mxRectangle width="113" height="40" as="alternateBounds" />
          </mxGeometry>
        </mxCell>
        <mxCell id="9bseCz9SSuh36VcmQYdb-15" value="&lt;font style=&quot;font-size: 14px&quot;&gt;State :&amp;nbsp;&lt;br&gt;&lt;span style=&quot;white-space: pre&quot;&gt;	&lt;/span&gt;array -&amp;gt; Shopping Cart&lt;/font&gt;" style="shape=partialRectangle;html=1;whiteSpace=wrap;connectable=0;fillColor=none;top=0;left=0;bottom=0;right=0;align=left;spacingLeft=6;overflow=hidden;" parent="9bseCz9SSuh36VcmQYdb-13" vertex="1">
          <mxGeometry x="113" width="397" height="40" as="geometry">
            <mxRectangle width="397" height="40" as="alternateBounds" />
          </mxGeometry>
        </mxCell>
        <mxCell id="9bseCz9SSuh36VcmQYdb-16" value="" style="shape=tableRow;horizontal=0;startSize=0;swimlaneHead=0;swimlaneBody=0;top=0;left=0;bottom=0;right=0;collapsible=0;dropTarget=0;fillColor=none;points=[[0,0.5],[1,0.5]];portConstraint=eastwest;" parent="9bseCz9SSuh36VcmQYdb-12" vertex="1">
          <mxGeometry y="60" width="510" height="30" as="geometry" />
        </mxCell>
        <mxCell id="9bseCz9SSuh36VcmQYdb-17" value="2" style="shape=partialRectangle;html=1;whiteSpace=wrap;connectable=0;fillColor=none;top=0;left=0;bottom=0;right=0;overflow=hidden;" parent="9bseCz9SSuh36VcmQYdb-16" vertex="1">
          <mxGeometry width="113" height="30" as="geometry">
            <mxRectangle width="113" height="30" as="alternateBounds" />
          </mxGeometry>
        </mxCell>
        <mxCell id="9bseCz9SSuh36VcmQYdb-18" value="&lt;span style=&quot;white-space: pre&quot;&gt;	&lt;/span&gt;" style="shape=partialRectangle;html=1;whiteSpace=wrap;connectable=0;fillColor=none;top=0;left=0;bottom=0;right=0;align=left;spacingLeft=6;overflow=hidden;" parent="9bseCz9SSuh36VcmQYdb-16" vertex="1">
          <mxGeometry x="113" width="397" height="30" as="geometry">
            <mxRectangle width="397" height="30" as="alternateBounds" />
          </mxGeometry>
        </mxCell>
        <mxCell id="9bseCz9SSuh36VcmQYdb-19" value="" style="shape=tableRow;horizontal=0;startSize=0;swimlaneHead=0;swimlaneBody=0;top=0;left=0;bottom=0;right=0;collapsible=0;dropTarget=0;fillColor=none;points=[[0,0.5],[1,0.5]];portConstraint=eastwest;" parent="9bseCz9SSuh36VcmQYdb-12" vertex="1">
          <mxGeometry y="90" width="510" height="30" as="geometry" />
        </mxCell>
        <mxCell id="9bseCz9SSuh36VcmQYdb-20" value="3" style="shape=partialRectangle;html=1;whiteSpace=wrap;connectable=0;fillColor=none;top=0;left=0;bottom=0;right=0;overflow=hidden;" parent="9bseCz9SSuh36VcmQYdb-19" vertex="1">
          <mxGeometry width="113" height="30" as="geometry">
            <mxRectangle width="113" height="30" as="alternateBounds" />
          </mxGeometry>
        </mxCell>
        <mxCell id="9bseCz9SSuh36VcmQYdb-21" value="" style="shape=partialRectangle;html=1;whiteSpace=wrap;connectable=0;fillColor=none;top=0;left=0;bottom=0;right=0;align=left;spacingLeft=6;overflow=hidden;" parent="9bseCz9SSuh36VcmQYdb-19" vertex="1">
          <mxGeometry x="113" width="397" height="30" as="geometry">
            <mxRectangle width="397" height="30" as="alternateBounds" />
          </mxGeometry>
        </mxCell>
        <mxCell id="5jkRZeEeujEumupn6Zs3-1" value="Product View / Shopping Cart" style="whiteSpace=wrap;html=1;aspect=fixed;" vertex="1" parent="9bseCz9SSuh36VcmQYdb-35">
          <mxGeometry x="120" y="420" width="180" height="180" as="geometry" />
        </mxCell>
        <mxCell id="5jkRZeEeujEumupn6Zs3-2" value="&lt;div&gt;&lt;font style=&quot;font-size: 14px&quot;&gt;handleDeleteFromCart() / handleAddToCart():&lt;span&gt;&lt;/span&gt;&lt;span&gt;&lt;/span&gt;&lt;span&gt;&lt;/span&gt;&lt;br&gt;&lt;/font&gt;&lt;div&gt;&lt;font style=&quot;font-size: 11px&quot;&gt;&lt;span&gt;	&lt;/span&gt;&lt;span style=&quot;white-space: pre&quot;&gt;	&lt;/span&gt;&lt;font style=&quot;font-size: 14px&quot;&gt;- setState&lt;/font&gt;&lt;/font&gt;&lt;/div&gt;&lt;font style=&quot;font-size: 14px&quot;&gt;&amp;nbsp;&amp;nbsp;&amp;nbsp;&amp;nbsp;&amp;nbsp; - setLocalStorage&lt;/font&gt;&lt;/div&gt;" style="shape=partialRectangle;html=1;whiteSpace=wrap;connectable=0;fillColor=none;top=0;left=0;bottom=0;right=0;align=left;spacingLeft=6;overflow=hidden;" vertex="1" parent="9bseCz9SSuh36VcmQYdb-35">
          <mxGeometry x="200" y="90" width="300" height="80" as="geometry">
            <mxRectangle width="280" height="40" as="alternateBounds" />
          </mxGeometry>
        </mxCell>
        <mxCell id="5jkRZeEeujEumupn6Zs3-3" value="" style="edgeStyle=segmentEdgeStyle;endArrow=classic;html=1;rounded=0;strokeColor=#00CC00;startArrow=none;entryX=0.25;entryY=0;entryDx=0;entryDy=0;" edge="1" parent="9bseCz9SSuh36VcmQYdb-35" target="5jkRZeEeujEumupn6Zs3-1">
          <mxGeometry width="50" height="50" relative="1" as="geometry">
            <mxPoint x="165" y="230" as="sourcePoint" />
            <mxPoint x="410.00000000000006" y="220.99" as="targetPoint" />
            <Array as="points" />
          </mxGeometry>
        </mxCell>
        <mxCell id="5jkRZeEeujEumupn6Zs3-6" value="" style="swimlane;startSize=0;" vertex="1" parent="9bseCz9SSuh36VcmQYdb-35">
          <mxGeometry x="60" y="270" width="100" height="90" as="geometry" />
        </mxCell>
        <mxCell id="5jkRZeEeujEumupn6Zs3-5" value="&lt;div&gt;ref to&lt;/div&gt;&lt;div&gt;handleDelete()&lt;/div&gt;&lt;div&gt;handleAdd()&lt;/div&gt;&lt;div&gt;&lt;br&gt;&lt;/div&gt;&lt;div&gt;state:&lt;/div&gt;&lt;div&gt;&amp;nbsp;cart[...]&lt;br&gt;&lt;/div&gt;" style="text;html=1;strokeColor=none;fillColor=none;align=center;verticalAlign=middle;whiteSpace=wrap;rounded=0;" vertex="1" parent="5jkRZeEeujEumupn6Zs3-6">
          <mxGeometry y="10" width="100" height="70" as="geometry" />
        </mxCell>
        <mxCell id="5jkRZeEeujEumupn6Zs3-7" value="" style="swimlane;startSize=0;" vertex="1" parent="9bseCz9SSuh36VcmQYdb-35">
          <mxGeometry x="240" y="300" width="220" height="90" as="geometry" />
        </mxCell>
        <mxCell id="5jkRZeEeujEumupn6Zs3-9" value="&lt;div&gt;&lt;font style=&quot;font-size: 18px&quot;&gt;&lt;font style=&quot;font-size: 14px&quot;&gt;+Add/-Delete&lt;br&gt;&lt;/font&gt;&lt;/font&gt;&lt;/div&gt;&lt;div&gt;&lt;font style=&quot;font-size: 18px&quot;&gt;&lt;font style=&quot;font-size: 14px&quot;&gt;(productId, ..., productName)&lt;/font&gt;&lt;br&gt;&lt;/font&gt;&lt;/div&gt;" style="text;html=1;strokeColor=none;fillColor=none;align=center;verticalAlign=middle;whiteSpace=wrap;rounded=0;" vertex="1" parent="5jkRZeEeujEumupn6Zs3-7">
          <mxGeometry x="-10" y="5" width="230" height="80" as="geometry" />
        </mxCell>
        <mxCell id="5jkRZeEeujEumupn6Zs3-12" value="" style="shape=datastore;whiteSpace=wrap;html=1;fontSize=18;" vertex="1" parent="9bseCz9SSuh36VcmQYdb-35">
          <mxGeometry x="685" y="70" width="120" height="145" as="geometry" />
        </mxCell>
        <mxCell id="5jkRZeEeujEumupn6Zs3-13" value="" style="endArrow=classic;html=1;rounded=0;fontSize=18;exitX=0;exitY=0.75;exitDx=0;exitDy=0;entryX=1;entryY=0.5;entryDx=0;entryDy=0;" edge="1" parent="9bseCz9SSuh36VcmQYdb-35" source="5jkRZeEeujEumupn6Zs3-14" target="9bseCz9SSuh36VcmQYdb-19">
          <mxGeometry width="50" height="50" relative="1" as="geometry">
            <mxPoint x="740" y="180" as="sourcePoint" />
            <mxPoint x="690" y="140" as="targetPoint" />
            <Array as="points">
              <mxPoint x="610" y="145" />
            </Array>
          </mxGeometry>
        </mxCell>
        <mxCell id="5jkRZeEeujEumupn6Zs3-14" value="&lt;div align=&quot;left&quot;&gt;Local Storage&lt;/div&gt;" style="text;html=1;strokeColor=none;fillColor=none;align=left;verticalAlign=middle;whiteSpace=wrap;rounded=0;fontSize=18;" vertex="1" parent="9bseCz9SSuh36VcmQYdb-35">
          <mxGeometry x="685" y="115" width="130" height="40" as="geometry" />
        </mxCell>
        <mxCell id="5jkRZeEeujEumupn6Zs3-16" value="&lt;font style=&quot;font-size: 14px&quot;&gt;ShoppingCart[...]&lt;/font&gt;" style="text;html=1;strokeColor=none;fillColor=none;align=center;verticalAlign=middle;whiteSpace=wrap;rounded=0;fontSize=18;" vertex="1" parent="9bseCz9SSuh36VcmQYdb-35">
          <mxGeometry x="715" y="150" width="60" height="30" as="geometry" />
        </mxCell>
        <mxCell id="5jkRZeEeujEumupn6Zs3-17" value="Get" style="text;html=1;strokeColor=none;fillColor=none;align=center;verticalAlign=middle;whiteSpace=wrap;rounded=0;fontSize=14;" vertex="1" parent="9bseCz9SSuh36VcmQYdb-35">
          <mxGeometry x="590" y="150" width="60" height="30" as="geometry" />
        </mxCell>
        <mxCell id="5jkRZeEeujEumupn6Zs3-19" value="" style="endArrow=classic;html=1;rounded=0;fontSize=14;entryX=0;entryY=0.3;entryDx=0;entryDy=0;exitX=1;exitY=0.5;exitDx=0;exitDy=0;" edge="1" parent="9bseCz9SSuh36VcmQYdb-35" source="9bseCz9SSuh36VcmQYdb-16" target="5jkRZeEeujEumupn6Zs3-12">
          <mxGeometry width="50" height="50" relative="1" as="geometry">
            <mxPoint x="700" y="80" as="sourcePoint" />
            <mxPoint x="800" y="80" as="targetPoint" />
            <Array as="points" />
          </mxGeometry>
        </mxCell>
        <mxCell id="5jkRZeEeujEumupn6Zs3-20" value="Set" style="text;html=1;strokeColor=none;fillColor=none;align=center;verticalAlign=middle;whiteSpace=wrap;rounded=0;fontSize=14;" vertex="1" parent="9bseCz9SSuh36VcmQYdb-35">
          <mxGeometry x="590" y="85" width="60" height="30" as="geometry" />
        </mxCell>
        <mxCell id="5jkRZeEeujEumupn6Zs3-21" value="&lt;div&gt;ComponentDidUpdate():&lt;/div&gt;&lt;div&gt;- getLocalStorage&lt;/div&gt;&lt;div&gt;-setState&lt;br&gt;&lt;/div&gt;" style="text;html=1;strokeColor=none;fillColor=none;align=center;verticalAlign=middle;whiteSpace=wrap;rounded=0;fontSize=14;" vertex="1" parent="9bseCz9SSuh36VcmQYdb-35">
          <mxGeometry x="200" y="170" width="190" height="50" as="geometry" />
        </mxCell>
        <mxCell id="5jkRZeEeujEumupn6Zs3-4" value="" style="edgeStyle=segmentEdgeStyle;endArrow=classic;html=1;rounded=0;exitX=0.622;exitY=0.006;exitDx=0;exitDy=0;strokeColor=#00CC00;startArrow=none;exitPerimeter=0;" edge="1" parent="1" source="5jkRZeEeujEumupn6Zs3-1">
          <mxGeometry width="50" height="50" relative="1" as="geometry">
            <mxPoint x="280" y="220" as="sourcePoint" />
            <mxPoint x="252" y="270" as="targetPoint" />
            <Array as="points">
              <mxPoint x="252" y="450" />
              <mxPoint x="250" y="450" />
              <mxPoint x="250" y="310" />
              <mxPoint x="252" y="310" />
            </Array>
          </mxGeometry>
        </mxCell>
      </root>
    </mxGraphModel>
  </diagram>
</mxfile>
